<svg xmlns="http://www.w3.org/2000/svg" width="80" height="40" viewBox="0 0 80 40"><path fill="#467366" d="M25.32 20.68A20.1 20.1 0 0 0 0 40h2a18 18 0 0 1 5.3-12.69A18.64 18.64 0 0 1 8.8 26v9.77L4.54 40h2.84l16.46-16.43a18 18 0 0 1-5.15 15.06c-.49.48-1 .93-1.51 1.35h3a20 20 0 0 0 5.14-19.3zm-14.51 13v-9.11a18.16 18.16 0 0 1 11.61-2.42zM65.25.75a20 20 0 0 0-24.5 24.5A20 20 0 0 0 65.25.75zM50.82 4.63a18 18 0 0 1 11.55-2.41L50.82 13.77zm-3.48 2.71c.48-.47 1-.91 1.48-1.32v9.75l-6.6 6.6a18 18 0 0 1 5.12-15.03zm11.32 11.32a18 18 0 0 1-15 5.12L63.78 3.63a18 18 0 0 1-5.12 15.03zM17.16 0A18 18 0 0 1 3.63 3.78L7.41 0H4.59L2.22 2.37A18.85 18.85 0 0 1 2.07 0h-2a19.86 19.86 0 0 0 .68 5.25A20 20 0 0 0 20.07.07l.07-.07z"/></svg>